<svg width="29" height="29" viewBox="0 0 29 29" fill="none" xmlns="http://www.w3.org/2000/svg">
<path d="M14.5 8.7L8.7 14.5L14.5 20.3L16.53 18.27L14.21 15.95L20.3 15.95L20.3 13.05L14.21 13.05L16.53 10.73L14.5 8.7ZM14.5 -1.26763e-06C16.5058 -1.09227e-06 18.3908 0.380864 20.155 1.1426C21.9192 1.90337 23.4538 2.93625 24.7588 4.24125C26.0638 5.54625 27.0966 7.08083 27.8574 8.845C28.6191 10.6092 29 12.4942 29 14.5C29 16.5058 28.6191 18.3908 27.8574 20.155C27.0966 21.9192 26.0638 23.4537 24.7587 24.7587C23.4537 26.0637 21.9192 27.0971 20.155 27.8588C18.3908 28.6196 16.5058 29 14.5 29C12.4942 29 10.6092 28.6196 8.845 27.8588C7.08083 27.0971 5.54625 26.0637 4.24125 24.7587C2.93625 23.4537 1.90337 21.9192 1.1426 20.155C0.380866 18.3908 1.09227e-06 16.5058 1.26763e-06 14.5C1.44299e-06 12.4942 0.380867 10.6092 1.1426 8.845C1.90337 7.08083 2.93625 5.54625 4.24125 4.24125C5.54625 2.93625 7.08084 1.90336 8.845 1.1426C10.6092 0.380863 12.4942 -1.44299e-06 14.5 -1.26763e-06ZM14.5 2.9C11.2617 2.9 8.51875 4.02375 6.27125 6.27125C4.02375 8.51875 2.9 11.2617 2.9 14.5C2.9 17.7383 4.02375 20.4812 6.27125 22.7287C8.51875 24.9762 11.2617 26.1 14.5 26.1C17.7383 26.1 20.4813 24.9762 22.7288 22.7287C24.9763 20.4812 26.1 17.7383 26.1 14.5C26.1 11.2617 24.9763 8.51875 22.7288 6.27125C20.4813 4.02375 17.7383 2.9 14.5 2.9Z" fill="black"/>
</svg>
