<svg width="29" height="29" viewBox="0 0 29 29" fill="none" xmlns="http://www.w3.org/2000/svg">
<path d="M14.5 20.3L20.3 14.5L14.5 8.7L12.47 10.73L14.79 13.05H8.7V15.95H14.79L12.47 18.27L14.5 20.3ZM14.5 29C12.4942 29 10.6092 28.6191 8.845 27.8574C7.08083 27.0966 5.54625 26.0638 4.24125 24.7588C2.93625 23.4538 1.90337 21.9192 1.1426 20.155C0.380867 18.3908 0 16.5058 0 14.5C0 12.4942 0.380867 10.6092 1.1426 8.845C1.90337 7.08083 2.93625 5.54625 4.24125 4.24125C5.54625 2.93625 7.08083 1.90288 8.845 1.14115C10.6092 0.380383 12.4942 0 14.5 0C16.5058 0 18.3908 0.380383 20.155 1.14115C21.9192 1.90288 23.4538 2.93625 24.7588 4.24125C26.0638 5.54625 27.0966 7.08083 27.8574 8.845C28.6191 10.6092 29 12.4942 29 14.5C29 16.5058 28.6191 18.3908 27.8574 20.155C27.0966 21.9192 26.0638 23.4538 24.7588 24.7588C23.4538 26.0638 21.9192 27.0966 20.155 27.8574C18.3908 28.6191 16.5058 29 14.5 29ZM14.5 26.1C17.7383 26.1 20.4812 24.9762 22.7288 22.7288C24.9762 20.4812 26.1 17.7383 26.1 14.5C26.1 11.2617 24.9762 8.51875 22.7288 6.27125C20.4812 4.02375 17.7383 2.9 14.5 2.9C11.2617 2.9 8.51875 4.02375 6.27125 6.27125C4.02375 8.51875 2.9 11.2617 2.9 14.5C2.9 17.7383 4.02375 20.4812 6.27125 22.7288C8.51875 24.9762 11.2617 26.1 14.5 26.1Z" fill="black"/>
</svg>
