<svg width="152" height="126" viewBox="0 0 152 126" fill="none" xmlns="http://www.w3.org/2000/svg">
<path d="M59.4789 67.6556C61.8151 66.2479 59.6163 62.4469 57.2801 63.9954C54.9439 65.4032 57.1427 69.0634 59.4789 67.6556Z" fill="#FF6464"/>
<path d="M53.432 50.1993C55.7682 48.7915 53.5694 44.9906 51.2332 46.5391C48.897 47.8061 51.0958 51.6071 53.432 50.1993Z" fill="#FF6464"/>
<path d="M94.7968 55.5489C97.133 54.1411 94.9342 50.3401 92.598 51.8887C90.2618 53.2964 92.4606 57.0974 94.7968 55.5489Z" fill="#FF6464"/>
<path d="M91.4984 87.2236C93.8346 85.8158 91.6358 82.0148 89.2996 83.5634C86.9634 84.9711 89.1622 88.6313 91.4984 87.2236Z" fill="#FF6464"/>
<path d="M79.2679 55.5489C81.6041 54.1411 79.4054 50.3401 77.0692 51.8887C74.733 53.2964 76.9317 56.9566 79.2679 55.5489Z" fill="#FF6464"/>
<path d="M105.654 44.2867C107.99 42.8789 105.791 39.078 103.455 40.6265C101.256 42.0343 103.317 45.6945 105.654 44.2867Z" fill="#FF6464"/>
<path d="M138.635 79.6216C140.971 78.2139 138.772 74.4129 136.436 75.9614C134.1 77.3692 136.298 81.0294 138.635 79.6216Z" fill="#FF6464"/>
<path d="M151.003 42.4566C153.339 41.0488 151.141 37.2479 148.804 38.7964C146.606 40.0634 148.667 43.8644 151.003 42.4566Z" fill="#FF6464"/>
<path d="M129.84 62.7285C132.176 61.3207 129.977 57.5197 127.641 59.0683C125.305 60.476 127.504 64.1362 129.84 62.7285Z" fill="#FF6464"/>
<path d="M109.089 78.4954C111.425 77.0877 109.226 73.2867 106.89 74.8352C104.554 76.243 106.753 80.044 109.089 78.4954Z" fill="#FF6464"/>
<path d="M116.235 55.2673C118.571 53.8595 116.372 50.0585 114.036 51.6071C111.7 52.8741 113.899 56.675 116.235 55.2673Z" fill="#FF6464"/>
<path d="M80.9172 72.5828C83.2534 71.1751 81.0546 67.3741 78.7184 68.9226C76.3822 70.1896 78.4436 73.9906 80.9172 72.5828Z" fill="#FF6464"/>
<path d="M71.2968 38.2333C73.633 36.8255 71.4342 33.0246 69.098 34.5731C66.7618 35.9809 68.9606 39.6411 71.2968 38.2333Z" fill="#FF6464"/>
<path d="M100.157 20.6362C102.493 19.2285 100.294 15.4275 97.9578 16.9761C95.759 18.2431 97.8203 22.044 100.157 20.6362Z" fill="#FF6464"/>
<path d="M132.038 9.65567C134.375 8.2479 132.176 4.44692 129.84 5.99547C127.503 7.40323 129.702 11.0634 132.038 9.65567Z" fill="#FF6464"/>
<path d="M125.167 42.3159C127.503 40.9081 125.305 37.1071 122.969 38.6557C120.77 40.0634 122.831 43.7236 125.167 42.3159Z" fill="#FF6464"/>
<path d="M88.7499 43.442C91.0861 42.0343 88.8873 38.2333 86.5511 39.7818C84.2149 41.1896 86.4136 44.8498 88.7499 43.442Z" fill="#FF6464"/>
<path d="M36.529 24.578C38.8652 23.1702 36.6664 19.3693 34.3302 20.9178C31.994 22.1848 34.0554 25.9858 36.529 24.578Z" fill="#FF6464"/>
<path d="M71.9843 4.0246C74.3205 2.61683 72.1217 -1.18415 69.7855 0.364395C67.4493 1.63138 69.6481 5.43236 71.9843 4.0246Z" fill="#FF6464"/>
<path d="M122.694 25.5634C125.03 24.1556 122.832 20.3547 120.495 21.9032C118.159 23.1702 120.358 26.9712 122.694 25.5634Z" fill="#FF6464"/>
<path d="M70.0604 22.044C72.3966 20.6362 70.1979 16.8353 67.8616 18.3838C65.5254 19.7916 67.7242 23.4518 70.0604 22.044Z" fill="#FF6464"/>
<path d="M55.6311 9.65567C57.9673 8.2479 55.7686 4.44692 53.4324 5.99547C51.2336 7.40323 53.2949 11.0634 55.6311 9.65567Z" fill="#FF6464"/>
<path d="M56.1806 24.8595C58.5168 23.4518 56.318 19.6508 53.9818 21.1994C51.6456 22.4663 53.8443 26.2673 56.1806 24.8595Z" fill="#FF6464"/>
<path d="M46.6981 70.4712C49.0343 69.0634 46.8355 65.2624 44.4993 66.811C42.1631 68.2188 44.3619 72.0197 46.6981 70.4712Z" fill="#FF6464"/>
<path d="M58.9286 121.855C61.2648 120.447 59.066 116.646 56.7298 118.194C54.3936 119.602 56.5924 123.262 58.9286 121.855Z" fill="#FF6464"/>
<path d="M19.9011 125.656C22.2373 124.248 20.0385 120.447 17.7023 121.995C15.3661 123.262 17.4274 127.063 19.9011 125.656Z" fill="#FF6464"/>
<path d="M43.1253 101.864C45.4615 100.457 43.2627 96.6556 40.9265 98.2041C38.7277 99.6119 40.7891 103.272 43.1253 101.864Z" fill="#FF6464"/>
<path d="M61.4026 95.9517C63.7388 94.5439 61.5401 90.743 59.2038 92.2916C57.0051 93.6993 59.0664 97.3595 61.4026 95.9517Z" fill="#FF6464"/>
<path d="M92.3231 110.029C94.6593 108.622 92.4605 104.821 90.1243 106.369C87.7881 107.636 89.9869 111.437 92.3231 110.029Z" fill="#FF6464"/>
<path d="M71.8471 85.3935C74.1833 83.9857 71.9845 80.1848 69.6483 81.7333C67.3121 83.1411 69.5109 86.8012 71.8471 85.3935Z" fill="#FF6464"/>
<path d="M41.7509 86.942C44.0871 85.5342 41.8883 81.7333 39.5521 83.2818C37.2159 84.5488 39.4147 88.3498 41.7509 86.942Z" fill="#FF6464"/>
<path d="M13.1669 43.0197C15.5031 41.612 13.3043 37.811 10.9681 39.3595C8.63189 40.7673 10.8307 44.4275 13.1669 43.0197Z" fill="#FF6464"/>
<path d="M3.13506 64.9809C5.47126 63.5731 3.27247 59.7722 0.936267 61.3207C-1.26251 62.5877 0.798852 66.3886 3.13506 64.9809Z" fill="#FF6464"/>
<path d="M24.848 64.8401C27.1842 63.4324 24.9854 59.6314 22.6492 61.1799C20.313 62.5877 22.5118 66.2479 24.848 64.8401Z" fill="#FF6464"/>
<path d="M17.4271 94.6847C19.7633 93.277 17.5646 89.476 15.2283 91.0245C12.8921 92.4323 15.0909 96.0925 17.4271 94.6847Z" fill="#FF6464"/>
<path d="M37.7655 42.7382C40.1017 41.3304 37.9029 37.5294 35.5667 39.078C33.2305 40.4857 35.4293 44.1459 37.7655 42.7382Z" fill="#FF6464"/>
<path d="M9.86901 14.3013C12.2052 12.8935 10.0064 9.09256 7.67024 10.6411C5.33404 12.0489 7.53281 15.709 9.86901 14.3013Z" fill="#FF6464"/>
<path d="M35.9794 5.85466C38.3156 4.4469 36.1168 0.645964 33.7806 2.19451C31.4444 3.60227 33.6432 7.26243 35.9794 5.85466Z" fill="#FF6464"/>
</svg>
