<svg width="7" height="4" viewBox="0 0 7 4" fill="none" xmlns="http://www.w3.org/2000/svg">
<path d="M6.86148 0.792627L3.75857 3.89862C3.72164 3.93548 3.68162 3.96154 3.63852 3.97677C3.59543 3.99226 3.54925 4 3.5 4C3.45075 4 3.40457 3.99226 3.36148 3.97677C3.31838 3.96154 3.27836 3.93548 3.24142 3.89862L0.129287 0.792627C0.0430957 0.706605 -1.48659e-07 0.599079 -1.54299e-07 0.470046C-1.59939e-07 0.341014 0.046174 0.230415 0.138522 0.138249C0.230871 0.0460832 0.33861 4.62036e-07 0.461741 4.56654e-07C0.584872 4.51272e-07 0.692612 0.0460832 0.78496 0.138249L3.5 2.84793L6.21504 0.138249C6.30123 0.0522275 6.40737 0.00921651 6.53346 0.0092165C6.65979 0.00921649 6.76913 0.0552995 6.86148 0.147465C6.95383 0.239631 7 0.347158 7 0.470046C7 0.592934 6.95383 0.700461 6.86148 0.792627Z" fill="#727272"/>
</svg>
